<svg width="23" height="23" viewBox="0 0 23 23" fill="none" xmlns="http://www.w3.org/2000/svg">
<path d="M20.9592 9.72417C21.9152 10.6801 22.4526 11.9762 22.4526 13.3277V17.7972C22.4526 20.3686 20.3675 22.4524 17.797 22.4524H12.3652C11.6294 22.4524 10.9236 22.1595 10.4035 21.6394L7.02105 18.2573C6.72697 17.9633 6.56206 17.5655 6.56206 17.1491V15.1554C6.56206 14.7402 6.72697 14.3413 7.02105 14.0473L10.5338 10.5348H7.89405C7.4789 10.5348 7.07986 10.6997 6.78579 10.9938L4.91754 12.8618H4.91638L3.73085 11.6741C3.43792 11.3801 3.27301 10.9822 3.27301 10.5671V8.57451C3.27301 8.15939 3.43792 7.7604 3.732 7.46636L5.60026 5.5983H4.02723C3.80004 5.5983 3.58208 5.68824 3.42178 5.84967L2.31005 6.96244H2.30889L1.73573 6.38819C1.48548 6.13796 1.34594 5.79894 1.34594 5.44493V3.82364C1.34594 3.46963 1.48663 3.13061 1.73689 2.88038L2.30889 2.30843H1.7069C1.5812 2.30843 1.46126 2.35802 1.37246 2.4468L0.946916 2.87231L0.686282 2.61171C0.597483 2.52291 0.547893 2.40299 0.547893 2.2773V1.01924C0.544434 0.758629 0.75663 0.547607 1.01726 0.547607H2.2766C2.4023 0.547607 2.52225 0.597192 2.61104 0.685982L2.87168 0.946588L3.2707 1.34557H5.44341C5.79747 1.34557 6.13767 1.48625 6.38793 1.73763L6.95993 2.31074L7.9252 3.2736H10.5661C10.9824 3.2736 11.3803 3.43849 11.6744 3.73253L12.8599 4.9191L14.5056 6.56347H14.5067V13.3589C14.5067 14.0956 14.7997 14.8014 15.321 15.3226L15.6716 15.672L18.4808 18.481C19.0875 19.0875 20.1254 18.6585 20.1254 17.8007V13.3311C20.1254 12.5955 19.8325 11.8897 19.3123 11.3697L16.1536 8.21127L14.5079 6.56577H17.15C17.5652 6.56577 17.9642 6.73066 18.2582 7.02471L20.1266 8.89278L20.9603 9.72649L20.9592 9.72417Z" fill="white"/>
</svg>
